<?xml version="1.0" encoding="UTF-8" standalone="no"?>
<!-- Created with Inkscape (http://www.inkscape.org/) -->

<svg
   xmlns:dc="http://purl.org/dc/elements/1.1/"
   xmlns:cc="http://creativecommons.org/ns#"
   xmlns:rdf="http://www.w3.org/1999/02/22-rdf-syntax-ns#"
   xmlns:svg="http://www.w3.org/2000/svg"
   xmlns="http://www.w3.org/2000/svg"
   xmlns:sodipodi="http://sodipodi.sourceforge.net/DTD/sodipodi-0.dtd"
   xmlns:inkscape="http://www.inkscape.org/namespaces/inkscape"
   width="236"
   height="20"
   viewBox="0 0 236 20"
   id="svg2"
   version="1.1"
   inkscape:version="0.91 r13725"
   sodipodi:docname="credittext.svg">
  <defs
     id="defs4">
    <inkscape:path-effect
       effect="spiro"
       id="path-effect4255"
       is_visible="true" />
    <inkscape:path-effect
       effect="spiro"
       id="path-effect4251"
       is_visible="true" />
    <inkscape:path-effect
       effect="spiro"
       id="path-effect4247"
       is_visible="true" />
    <inkscape:path-effect
       effect="spiro"
       id="path-effect4227"
       is_visible="true" />
    <inkscape:path-effect
       effect="spiro"
       id="path-effect4223"
       is_visible="true" />
    <inkscape:path-effect
       effect="spiro"
       id="path-effect4218"
       is_visible="true" />
    <inkscape:path-effect
       effect="spiro"
       id="path-effect4214"
       is_visible="true" />
    <inkscape:path-effect
       effect="spiro"
       id="path-effect4210"
       is_visible="true" />
    <inkscape:path-effect
       effect="spiro"
       id="path-effect4205"
       is_visible="true" />
    <inkscape:path-effect
       effect="spiro"
       id="path-effect4201"
       is_visible="true" />
    <inkscape:path-effect
       effect="spiro"
       id="path-effect4181"
       is_visible="true" />
    <inkscape:path-effect
       effect="spiro"
       id="path-effect4177"
       is_visible="true" />
    <inkscape:path-effect
       effect="spiro"
       id="path-effect4173"
       is_visible="true" />
    <inkscape:path-effect
       effect="spiro"
       id="path-effect4167"
       is_visible="true" />
    <inkscape:path-effect
       effect="spiro"
       id="path-effect4163"
       is_visible="true" />
    <inkscape:path-effect
       effect="spiro"
       id="path-effect4159"
       is_visible="true" />
    <inkscape:path-effect
       effect="spiro"
       id="path-effect4155"
       is_visible="true" />
    <inkscape:path-effect
       effect="spiro"
       id="path-effect4151"
       is_visible="true" />
    <inkscape:path-effect
       effect="spiro"
       id="path-effect4146"
       is_visible="true" />
    <inkscape:path-effect
       effect="spiro"
       id="path-effect4142"
       is_visible="true" />
  </defs>
  <sodipodi:namedview
     id="base"
     pagecolor="#ffffff"
     bordercolor="#666666"
     borderopacity="1.0"
     inkscape:pageopacity="0.0"
     inkscape:pageshadow="2"
     inkscape:zoom="2.8"
     inkscape:cx="115.77454"
     inkscape:cy="19.429731"
     inkscape:document-units="px"
     inkscape:current-layer="layer1"
     showgrid="true"
     units="px"
     inkscape:snap-bbox="true"
     inkscape:bbox-paths="true"
     inkscape:bbox-nodes="true"
     inkscape:snap-bbox-edge-midpoints="true"
     inkscape:snap-bbox-midpoints="true"
     inkscape:object-paths="true"
     inkscape:snap-intersection-paths="true"
     inkscape:object-nodes="true"
     inkscape:snap-smooth-nodes="true"
     inkscape:snap-midpoints="true"
     inkscape:snap-object-midpoints="true"
     inkscape:snap-center="true"
     inkscape:snap-text-baseline="true"
     inkscape:snap-page="true"
     inkscape:window-width="1366"
     inkscape:window-height="705"
     inkscape:window-x="-8"
     inkscape:window-y="-8"
     inkscape:window-maximized="1">
    <inkscape:grid
       type="xygrid"
       id="grid4138"
       empspacing="4" />
  </sodipodi:namedview>
  <metadata
     id="metadata7">
    <rdf:RDF>
      <cc:Work
         rdf:about="">
        <dc:format>image/svg+xml</dc:format>
        <dc:type
           rdf:resource="http://purl.org/dc/dcmitype/StillImage" />
        <dc:title></dc:title>
      </cc:Work>
    </rdf:RDF>
  </metadata>
  <g
     inkscape:label="Layer 1"
     inkscape:groupmode="layer"
     id="layer1"
     transform="translate(0,-1032.3622)">
    <path
       style="fill:#ff7700;fill-opacity:1;fill-rule:evenodd;stroke:none;stroke-width:1px;stroke-linecap:butt;stroke-linejoin:miter;stroke-opacity:1"
       d="m 0,0 0,20 4,0 0,-8 4,0 0,8 4,0 0,-20 z M 4,4 8,4 8,8 4,8 Z"
       transform="translate(0,1032.3622)"
       id="path4140"
       inkscape:connector-curvature="0"
       sodipodi:nodetypes="cccccccccccccc" />
    <path
       style="fill:#ff7700;fill-opacity:1;fill-rule:evenodd;stroke:none;stroke-width:1px;stroke-linecap:butt;stroke-linejoin:miter;stroke-opacity:1"
       d="m 16,1032.3622 0,20 8,0 0,-4 -4,0 0,-16 -4,0 z"
       id="path4149"
       inkscape:path-effect="#path-effect4151"
       inkscape:original-d="m 16,1032.3622 0,20 8,0 0,-4 -4,0 0,-16 z"
       inkscape:connector-curvature="0"
       sodipodi:nodetypes="ccccccc" />
    <path
       style="fill:#ff7700;fill-opacity:1;fill-rule:evenodd;stroke:none;stroke-width:1px;stroke-linecap:butt;stroke-linejoin:miter;stroke-opacity:1"
       d="m 28,1032.3622 0,20 8,0 0,-4 -4,0 0,-16 -4,0 z"
       id="path4153"
       inkscape:path-effect="#path-effect4155"
       inkscape:original-d="m 28,1032.3622 0,20 8,0 0,-4 -4,0 0,-16 z"
       inkscape:connector-curvature="0"
       sodipodi:nodetypes="ccccccc" />
    <path
       style="fill:#ff7700;fill-opacity:1;fill-rule:evenodd;stroke:none;stroke-width:1px;stroke-linecap:butt;stroke-linejoin:miter;stroke-opacity:1"
       d="m 48,0 0,20 16,0 0,-12 -4,0 0,-8 -12,0 z m 4,4 4,0 0,4 -4,0 0,-4 z m 0,8 8,0 0,4 -8,0 0,-4 z"
       transform="translate(0,1032.3622)"
       id="path4157"
       inkscape:connector-curvature="0" />
    <path
       style="fill:#ff7700;fill-opacity:1;fill-rule:evenodd;stroke:none;stroke-width:1px;stroke-linecap:butt;stroke-linejoin:miter;stroke-opacity:1"
       d="m 68,1032.3622 4,0 0,8 4,0 0,-8 4,0 0,20 -12,0 0,-4 8,0 0,-4 -8,0 0,-12 z"
       id="path4171"
       inkscape:path-effect="#path-effect4173"
       inkscape:original-d="m 68,1032.3622 4,0 0,8 4,0 0,-8 4,0 0,20 -12,0 0,-4 8,0 0,-4 -8,0 z"
       inkscape:connector-curvature="0" />
    <path
       style="fill:#ff7700;fill-opacity:1;fill-rule:evenodd;stroke:none;stroke-width:1px;stroke-linecap:butt;stroke-linejoin:miter;stroke-opacity:1"
       d="m 84,4 0,4 4,0 0,-4 -4,0 z m 0,8 0,4 4,0 0,-4 -4,0 z"
       transform="translate(0,1032.3622)"
       id="path4175"
       inkscape:connector-curvature="0" />
    <path
       inkscape:connector-curvature="0"
       style="fill:#ff7700;fill-opacity:1;fill-rule:evenodd;stroke:none;stroke-width:1px;stroke-linecap:butt;stroke-linejoin:miter;stroke-opacity:1"
       d="m 100,1032.3622 0,20 16,0 0,-12 -4,0 0,-8 -12,0 z m 4,4 4,0 0,4 -4,0 0,-4 z m 0,8 8,0 0,4 -8,0 0,-4 z"
       id="path4157-1" />
    <path
       style="fill:#ff7700;fill-opacity:1;fill-rule:evenodd;stroke:none;stroke-width:1px;stroke-linecap:butt;stroke-linejoin:miter;stroke-opacity:1"
       d="m 120,0 0,20 12,0 0,-4 -8,0 0,-4 8,0 0,-12 -12,0 z m 4,4 4,0 0,4 -4,0 0,-4 z"
       transform="translate(0,1032.3622)"
       id="path4199"
       inkscape:connector-curvature="0" />
    <path
       style="fill:#ff7700;fill-opacity:1;fill-rule:evenodd;stroke:none;stroke-width:1px;stroke-linecap:butt;stroke-linejoin:miter;stroke-opacity:1"
       d="m 136,1052.3622 0,-20 12,0 0,20 -4,0 0,-16 -4,0 0,16 -4,0 z"
       id="path4208"
       inkscape:path-effect="#path-effect4210"
       inkscape:original-d="m 136,1052.3622 0,-20 12,0 0,20 -4,0 0,-16 -4,0 0,16 z"
       inkscape:connector-curvature="0" />
    <path
       style="fill:#ff7700;fill-opacity:1;fill-rule:evenodd;stroke:none;stroke-width:1px;stroke-linecap:butt;stroke-linejoin:miter;stroke-opacity:1"
       d="m 152,0 0,20 4,0 0,-8 8,0 0,-12 -12,0 z m 4,4 4,0 0,4 -4,0 0,-4 z"
       transform="translate(0,1032.3622)"
       id="path4212"
       inkscape:connector-curvature="0" />
    <path
       style="fill:#ff7700;fill-opacity:1;fill-rule:evenodd;stroke:none;stroke-width:1px;stroke-linecap:butt;stroke-linejoin:miter;stroke-opacity:1"
       d="m 168,0 0,4 4,0 0,-4 -4,0 z m 0,8 0,12 4,0 0,-12 -4,0 z"
       transform="translate(0,1032.3622)"
       id="path4221"
       inkscape:connector-curvature="0" />
    <path
       style="fill:#ff7700;fill-opacity:1;fill-rule:evenodd;stroke:none;stroke-width:1px;stroke-linecap:butt;stroke-linejoin:miter;stroke-opacity:1"
       d="m 188,1032.3622 0,20 -12,0 0,-4 8,0 0,-4 -8,0 0,-12 12,0 z m -4,4 -4,0 0,4 4,0 0,-4 z"
       id="path4199-2"
       inkscape:connector-curvature="0" />
    <path
       style="fill:#ff7700;fill-opacity:1;fill-rule:evenodd;stroke:none;stroke-width:1px;stroke-linecap:butt;stroke-linejoin:miter;stroke-opacity:1"
       d="m 192,1032.3622 12,0 0,4 -8,0 0,12 8,0 0,4 -12,0 0,-20 z"
       id="path4245"
       inkscape:path-effect="#path-effect4247"
       inkscape:original-d="m 192,1032.3622 12,0 0,4 -8,0 0,12 8,0 0,4 -12,0 z"
       inkscape:connector-curvature="0" />
    <path
       style="fill:#ff7700;fill-opacity:1;fill-rule:evenodd;stroke:none;stroke-width:1px;stroke-linecap:butt;stroke-linejoin:miter;stroke-opacity:1"
       d="m 208,1032.3622 0,20 4,0 0,-8 4,0 0,8 4,0 0,-12 -8,0 0,-8 -4,0 z"
       id="path4249"
       inkscape:path-effect="#path-effect4251"
       inkscape:original-d="m 208,1032.3622 0,20 4,0 0,-8 4,0 0,8 4,0 0,-12 -8,0 0,-8 z"
       inkscape:connector-curvature="0" />
    <path
       style="fill:#ff7700;fill-opacity:1;fill-rule:evenodd;stroke:none;stroke-width:1px;stroke-linecap:butt;stroke-linejoin:miter;stroke-opacity:1"
       d="m 224,1032.3622 0,20 12,0 0,-20 -4,0 0,16 -4,0 0,-16 -4,0 z"
       id="path4253"
       inkscape:path-effect="#path-effect4255"
       inkscape:original-d="m 224,1032.3622 0,20 12,0 0,-20 -4,0 0,16 -4,0 0,-16 z"
       inkscape:connector-curvature="0" />
  </g>
</svg>
