<?xml version="1.0" encoding="UTF-8" standalone="no"?>
<svg
   xmlns:dc="http://purl.org/dc/elements/1.1/"
   xmlns:cc="http://creativecommons.org/ns#"
   xmlns:rdf="http://www.w3.org/1999/02/22-rdf-syntax-ns#"
   xmlns:svg="http://www.w3.org/2000/svg"
   xmlns="http://www.w3.org/2000/svg"
   version="1.1"
   id="svg2"
   viewBox="0 0 236 20"
   height="20"
   width="236">
  <defs
     id="defs4" />
  <metadata
     id="metadata7">
    <rdf:RDF>
      <cc:Work
         rdf:about="">
        <dc:format>image/svg+xml</dc:format>
        <dc:type
           rdf:resource="http://purl.org/dc/dcmitype/StillImage" />
        <dc:title></dc:title>
      </cc:Work>
    </rdf:RDF>
  </metadata>
  <g
     transform="translate(0,-1032.3622)"
     id="layer1">
    <path
       id="path4140"
       transform="translate(0,1032.3622)"
       d="m 0,0 0,20 4,0 0,-8 4,0 0,8 4,0 0,-20 z M 4,4 8,4 8,8 4,8 Z"
       style="fill:#ff7700;fill-opacity:1;fill-rule:evenodd;stroke:none;stroke-width:1px;stroke-linecap:butt;stroke-linejoin:miter;stroke-opacity:1" />
    <path
       id="path4149"
       d="m 16,1032.3622 0,20 8,0 0,-4 -4,0 0,-16 -4,0 z"
       style="fill:#ff7700;fill-opacity:1;fill-rule:evenodd;stroke:none;stroke-width:1px;stroke-linecap:butt;stroke-linejoin:miter;stroke-opacity:1" />
    <path
       id="path4153"
       d="m 28,1032.3622 0,20 8,0 0,-4 -4,0 0,-16 -4,0 z"
       style="fill:#ff7700;fill-opacity:1;fill-rule:evenodd;stroke:none;stroke-width:1px;stroke-linecap:butt;stroke-linejoin:miter;stroke-opacity:1" />
    <path
       id="path4157"
       transform="translate(0,1032.3622)"
       d="m 48,0 0,20 16,0 0,-12 -4,0 0,-8 -12,0 z m 4,4 4,0 0,4 -4,0 0,-4 z m 0,8 8,0 0,4 -8,0 0,-4 z"
       style="fill:#ff7700;fill-opacity:1;fill-rule:evenodd;stroke:none;stroke-width:1px;stroke-linecap:butt;stroke-linejoin:miter;stroke-opacity:1" />
    <path
       id="path4171"
       d="m 68,1032.3622 4,0 0,8 4,0 0,-8 4,0 0,20 -12,0 0,-4 8,0 0,-4 -8,0 0,-12 z"
       style="fill:#ff7700;fill-opacity:1;fill-rule:evenodd;stroke:none;stroke-width:1px;stroke-linecap:butt;stroke-linejoin:miter;stroke-opacity:1" />
    <path
       id="path4175"
       transform="translate(0,1032.3622)"
       d="m 84,4 0,4 4,0 0,-4 -4,0 z m 0,8 0,4 4,0 0,-4 -4,0 z"
       style="fill:#ff7700;fill-opacity:1;fill-rule:evenodd;stroke:none;stroke-width:1px;stroke-linecap:butt;stroke-linejoin:miter;stroke-opacity:1" />
    <path
       id="path4157-1"
       d="m 100,1032.3622 0,20 16,0 0,-12 -4,0 0,-8 -12,0 z m 4,4 4,0 0,4 -4,0 0,-4 z m 0,8 8,0 0,4 -8,0 0,-4 z"
       style="fill:#ff7700;fill-opacity:1;fill-rule:evenodd;stroke:none;stroke-width:1px;stroke-linecap:butt;stroke-linejoin:miter;stroke-opacity:1" />
    <path
       id="path4199"
       transform="translate(0,1032.3622)"
       d="m 120,0 0,20 12,0 0,-4 -8,0 0,-4 8,0 0,-12 -12,0 z m 4,4 4,0 0,4 -4,0 0,-4 z"
       style="fill:#ff7700;fill-opacity:1;fill-rule:evenodd;stroke:none;stroke-width:1px;stroke-linecap:butt;stroke-linejoin:miter;stroke-opacity:1" />
    <path
       id="path4208"
       d="m 136,1052.3622 0,-20 12,0 0,20 -4,0 0,-16 -4,0 0,16 -4,0 z"
       style="fill:#ff7700;fill-opacity:1;fill-rule:evenodd;stroke:none;stroke-width:1px;stroke-linecap:butt;stroke-linejoin:miter;stroke-opacity:1" />
    <path
       id="path4212"
       transform="translate(0,1032.3622)"
       d="m 152,0 0,20 4,0 0,-8 8,0 0,-12 -12,0 z m 4,4 4,0 0,4 -4,0 0,-4 z"
       style="fill:#ff7700;fill-opacity:1;fill-rule:evenodd;stroke:none;stroke-width:1px;stroke-linecap:butt;stroke-linejoin:miter;stroke-opacity:1" />
    <path
       id="path4221"
       transform="translate(0,1032.3622)"
       d="m 168,0 0,4 4,0 0,-4 -4,0 z m 0,8 0,12 4,0 0,-12 -4,0 z"
       style="fill:#ff7700;fill-opacity:1;fill-rule:evenodd;stroke:none;stroke-width:1px;stroke-linecap:butt;stroke-linejoin:miter;stroke-opacity:1" />
    <path
       id="path4199-2"
       d="m 188,1032.3622 0,20 -12,0 0,-4 8,0 0,-4 -8,0 0,-12 12,0 z m -4,4 -4,0 0,4 4,0 0,-4 z"
       style="fill:#ff7700;fill-opacity:1;fill-rule:evenodd;stroke:none;stroke-width:1px;stroke-linecap:butt;stroke-linejoin:miter;stroke-opacity:1" />
    <path
       id="path4245"
       d="m 192,1032.3622 12,0 0,4 -8,0 0,12 8,0 0,4 -12,0 0,-20 z"
       style="fill:#ff7700;fill-opacity:1;fill-rule:evenodd;stroke:none;stroke-width:1px;stroke-linecap:butt;stroke-linejoin:miter;stroke-opacity:1" />
    <path
       id="path4249"
       d="m 208,1032.3622 0,20 4,0 0,-8 4,0 0,8 4,0 0,-12 -8,0 0,-8 -4,0 z"
       style="fill:#ff7700;fill-opacity:1;fill-rule:evenodd;stroke:none;stroke-width:1px;stroke-linecap:butt;stroke-linejoin:miter;stroke-opacity:1" />
    <path
       id="path4253"
       d="m 224,1032.3622 0,20 12,0 0,-20 -4,0 0,16 -4,0 0,-16 -4,0 z"
       style="fill:#ff7700;fill-opacity:1;fill-rule:evenodd;stroke:none;stroke-width:1px;stroke-linecap:butt;stroke-linejoin:miter;stroke-opacity:1" />
  </g>
</svg>
