<?xml version="1.0" encoding="UTF-8" standalone="no"?>
<svg
   xmlns:dc="http://purl.org/dc/elements/1.1/"
   xmlns:cc="http://creativecommons.org/ns#"
   xmlns:rdf="http://www.w3.org/1999/02/22-rdf-syntax-ns#"
   xmlns:svg="http://www.w3.org/2000/svg"
   xmlns="http://www.w3.org/2000/svg"
   version="1.1"
   id="svg2"
   viewBox="0 0 104 104"
   height="104"
   width="104">
  <defs
     id="defs4" />
  <metadata
     id="metadata7">
    <rdf:RDF>
      <cc:Work
         rdf:about="">
        <dc:format>image/svg+xml</dc:format>
        <dc:type
           rdf:resource="http://purl.org/dc/dcmitype/StillImage" />
        <dc:title></dc:title>
      </cc:Work>
    </rdf:RDF>
  </metadata>
  <g
     id="layer1">
    <path
       id="rect4136"
       d="M 0 0 L 0 104 L 104 104 L 104 0 L 0 0 z M 8 8 L 48 8 L 48 16 L 16 16 L 16 24 L 32 24 L 32 32 L 16 32 L 16 48 L 8 48 L 8 8 z M 56 8 L 96 8 L 76 48 L 68 48 L 84 16 L 56 16 L 56 8 z M 28 56 A 20 20 0 0 1 48 76 A 20 20 0 0 1 28 96 A 20 20 0 0 1 8 76 A 20 20 0 0 1 28 56 z M 28 64 A 12 12 0 0 0 16 76 A 12 12 0 0 0 28 88 A 12 12 0 0 0 40 76 A 12 12 0 0 0 28 64 z "
       style="fill:#ff7700;fill-opacity:1;fill-rule:nonzero;stroke:#ff7700;stroke-width:1;stroke-miterlimit:4;stroke-dasharray:none;stroke-opacity:1" />
  </g>
</svg>
