<?xml version="1.0" encoding="UTF-8" standalone="no"?>
<svg
   xmlns:dc="http://purl.org/dc/elements/1.1/"
   xmlns:cc="http://creativecommons.org/ns#"
   xmlns:rdf="http://www.w3.org/1999/02/22-rdf-syntax-ns#"
   xmlns:svg="http://www.w3.org/2000/svg"
   xmlns="http://www.w3.org/2000/svg"
   version="1.1"
   id="svg2"
   viewBox="0 0 288 48.000001"
   height="48"
   width="288">
  <defs
     id="defs4" />
  <metadata
     id="metadata7">
    <rdf:RDF>
      <cc:Work
         rdf:about="">
        <dc:format>image/svg+xml</dc:format>
        <dc:type
           rdf:resource="http://purl.org/dc/dcmitype/StillImage" />
        <dc:title></dc:title>
      </cc:Work>
    </rdf:RDF>
  </metadata>
  <g
     transform="translate(0,-1004.3622)"
     id="layer1">
    <g
       transform="translate(4.3535534,1008.3622)"
       id="layer1-3">
      <path
         style="fill:none;fill-opacity:1;fill-rule:nonzero;stroke:#ff7700;stroke-width:1.00000012;stroke-miterlimit:4;stroke-dasharray:none;stroke-opacity:1"
         d="M 32,20 8,20 Z"
         id="path4142" />
      <path
         style="fill:none;fill-opacity:1;fill-rule:nonzero;stroke:#ff7700;stroke-width:1.00000012;stroke-miterlimit:4;stroke-dasharray:none;stroke-opacity:1"
         d="M 20,8 8,20 20,32"
         id="path4142-0" />
    </g>
    <g
       transform="translate(147.99843,1008.7173)"
       id="layer1-2">
      <path
         style="fill:none;fill-opacity:1;fill-rule:nonzero;stroke:#ff7f00;stroke-width:1;stroke-miterlimit:4;stroke-dasharray:none;stroke-opacity:1"
         d="m 28.485281,28.485281 a 12,12 0 0 1 -16.970562,0 12,12 0 0 1 0,-16.970562 12,12 0 0 1 16.970562,0"
         id="path4134" />
      <path
         style="fill:none;fill-opacity:1;fill-rule:evenodd;stroke:#ff7700;stroke-width:1px;stroke-linecap:butt;stroke-linejoin:miter;stroke-opacity:1"
         d="m 32,8 0,7.029437 -7.029437,0 z"
         id="path4138" />
    </g>
    <g
       transform="translate(51.998428,1008.7173)"
       id="layer1-7">
      <path
         style="fill:none;fill-opacity:1;fill-rule:nonzero;stroke:#ff7f00;stroke-width:1;stroke-miterlimit:4;stroke-dasharray:none;stroke-opacity:1"
         d="m 11.517864,28.485281 a 12,12 0 0 0 16.970562,0 12,12 0 0 0 0,-16.970562 12,12 0 0 0 -16.970562,0"
         id="path4134-5" />
      <path
         style="fill:none;fill-opacity:1;fill-rule:evenodd;stroke:#ff7700;stroke-width:1px;stroke-linecap:butt;stroke-linejoin:miter;stroke-opacity:1"
         d="m 8.0031452,8 0,7.029437 7.0294368,0 z"
         id="path4138-9" />
    </g>
    <g
       id="g4174"
       transform="matrix(-1,0,0,-1,139.64645,1048.3622)">
      <path
         id="path4176"
         d="M 32,20 8,20 Z"
         style="fill:none;fill-opacity:1;fill-rule:nonzero;stroke:#ff7700;stroke-width:1.00000012;stroke-miterlimit:4;stroke-dasharray:none;stroke-opacity:1" />
      <path
         id="path4178"
         d="M 20,8 8,20 20,32"
         style="fill:none;fill-opacity:1;fill-rule:nonzero;stroke:#ff7700;stroke-width:1.00000012;stroke-miterlimit:4;stroke-dasharray:none;stroke-opacity:1" />
    </g>
    <g
       transform="translate(244,1008.3622)"
       id="layer1-39">
      <path
         style="fill:none;fill-opacity:1;fill-rule:nonzero;stroke:#ff7700;stroke-width:1.00000012;stroke-miterlimit:4;stroke-dasharray:none;stroke-opacity:1"
         d="m 26,8 0,24 z"
         id="path4142-6" />
      <path
         style="fill:none;fill-opacity:1;fill-rule:nonzero;stroke:#ff7700;stroke-width:1.00000012;stroke-miterlimit:4;stroke-dasharray:none;stroke-opacity:1"
         d="m 14,8 0,24"
         id="path4142-0-6" />
    </g>
    <g
       transform="translate(32,0)"
       id="g4199">
      <path
         style="opacity:1;fill:none;fill-opacity:0;fill-rule:evenodd;stroke:#ff7700;stroke-width:1;stroke-linejoin:miter;stroke-miterlimit:4;stroke-dasharray:none;stroke-opacity:1"
         d="m 178,12 0,6 0,6 6,0 a 6,6 0 0 0 6,-6 6,6 0 0 0 -6,-6 l -6,0 z"
         transform="translate(0,1004.3622)"
         id="path4190" />
      <path
         style="fill:none;fill-rule:evenodd;stroke:#ff7700;stroke-width:1px;stroke-linecap:butt;stroke-linejoin:miter;stroke-opacity:1"
         d="m 178,1028.3622 0,12"
         id="path4195" />
    </g>
    <rect
       y="1012.3622"
       x="8"
       height="32"
       width="32"
       id="rect4203"
       style="opacity:1;fill:none;fill-opacity:0;fill-rule:evenodd;stroke:#ff7700;stroke-width:1;stroke-linejoin:miter;stroke-miterlimit:4;stroke-dasharray:none;stroke-opacity:1" />
    <rect
       y="1012.3622"
       x="104"
       height="32"
       width="32"
       id="rect4203-1"
       style="opacity:1;fill:none;fill-opacity:0;fill-rule:evenodd;stroke:#ff7700;stroke-width:1;stroke-linejoin:miter;stroke-miterlimit:4;stroke-dasharray:none;stroke-opacity:1" />
    <rect
       y="1012.3622"
       x="200"
       height="32"
       width="32"
       id="rect4203-9"
       style="opacity:1;fill:none;fill-opacity:0;fill-rule:evenodd;stroke:#ff7700;stroke-width:1;stroke-linejoin:miter;stroke-miterlimit:4;stroke-dasharray:none;stroke-opacity:1" />
    <path
       id="path4226"
       d="m 46,1024.3622 8,0 m -8,8 8,0"
       style="fill:none;fill-rule:evenodd;stroke:#ff7700;stroke-width:1px;stroke-linecap:butt;stroke-linejoin:miter;stroke-opacity:1" />
    <path
       id="path4226-7"
       d="m 142,1024.3622 8,0 m -8,8 8,0"
       style="fill:none;fill-rule:evenodd;stroke:#ff7700;stroke-width:1px;stroke-linecap:butt;stroke-linejoin:miter;stroke-opacity:1" />
    <path
       id="path4226-75"
       d="m 241,1024.3622 8,0 m -8,8 8,0"
       style="fill:none;fill-rule:evenodd;stroke:#ff7700;stroke-width:1px;stroke-linecap:butt;stroke-linejoin:miter;stroke-opacity:1" />
  </g>
</svg>
