<?xml version="1.0" encoding="UTF-8" standalone="no"?>
<svg
   xmlns:dc="http://purl.org/dc/elements/1.1/"
   xmlns:cc="http://creativecommons.org/ns#"
   xmlns:rdf="http://www.w3.org/1999/02/22-rdf-syntax-ns#"
   xmlns:svg="http://www.w3.org/2000/svg"
   xmlns="http://www.w3.org/2000/svg"
   version="1.1"
   id="svg"
   viewBox="0 0 140 20"
   height="20"
   width="140">
  <defs
     id="defs" />
  <metadata
     id="metadata">
    <rdf:RDF>
      <cc:Work
         rdf:about="">
        <dc:format>image/svg+xml</dc:format>
        <dc:type
           rdf:resource="http://purl.org/dc/dcmitype/StillImage" />
        <dc:title></dc:title>
      </cc:Work>
    </rdf:RDF>
  </metadata>
  <g
     id="layer1">
    <path
       id="s"
       d="M 0,0 20,0 20,4 4,4 4,8 20,8 20,20 0,20 0,16 16,16 16,12 0,12 Z"
       style="fill:#ff7700;fill-opacity:1;fill-rule:nonzero;stroke:#000000;stroke-width:2;stroke-miterlimit:4;stroke-dasharray:none;stroke-opacity:0" />
    <path
       id="n"
       d="m 24,0 20,0 0,20 -4,0 0,-16 -12,0 0,16 -4,0 z"
       style="fill:#ff7700;fill-opacity:1;fill-rule:nonzero;stroke:#000000;stroke-width:2;stroke-miterlimit:4;stroke-dasharray:none;stroke-opacity:0" />
    <path
       id="k"
       d="m 72,0 4,0 0,8 12,0 0,-8 4,0 0,4 -8,0 0,12 8,0 0,4 -4,0 0,-8 -12,0 0,8 -4,0 z"
       style="fill:#ff7700;fill-opacity:1;fill-rule:nonzero;stroke:#000000;stroke-width:2;stroke-miterlimit:4;stroke-dasharray:none;stroke-opacity:0" />
    <path
       d="m 52,12 0,4 12,0 0,-4 z M 48,0 68,0 68,20 48,20 48,8 64,8 64,4 48,4 Z"
       style="fill:#ff7700;fill-opacity:1;fill-rule:nonzero;stroke:#000000;stroke-width:2;stroke-miterlimit:4;stroke-dasharray:none;stroke-opacity:0"
       id="a" />
    <path
       d="m 100,4 0,4 12,0 0,-4 z m -4,-4 20,0 0,12 -16,0 0,4 16,0 0,4 -20,0 z"
       style="fill:#ff7700;fill-opacity:1;fill-rule:nonzero;stroke:#000000;stroke-width:2;stroke-miterlimit:4;stroke-dasharray:none;stroke-opacity:0"
       id="e" />
    <path
       id="+"
       d="m 120,8 8,0 0,-8 4,0 0,8 8,0 0,4 -8,0 0,8 -4,0 0,-8 -8,0 z"
       style="fill:#ff7700;fill-opacity:1;fill-rule:nonzero;stroke:#000000;stroke-width:2;stroke-miterlimit:4;stroke-dasharray:none;stroke-opacity:0" />
  </g>
</svg>
