<?xml version="1.0" encoding="UTF-8" standalone="no"?>
<!-- Created with Inkscape (http://www.inkscape.org/) -->

<svg
   xmlns:dc="http://purl.org/dc/elements/1.1/"
   xmlns:cc="http://creativecommons.org/ns#"
   xmlns:rdf="http://www.w3.org/1999/02/22-rdf-syntax-ns#"
   xmlns:svg="http://www.w3.org/2000/svg"
   xmlns="http://www.w3.org/2000/svg"
   xmlns:sodipodi="http://sodipodi.sourceforge.net/DTD/sodipodi-0.dtd"
   xmlns:inkscape="http://www.inkscape.org/namespaces/inkscape"
   width="140"
   height="20"
   viewBox="0 0 140 20"
   id="svg"
   version="1.1"
   inkscape:version="0.91 r13725"
   sodipodi:docname="title.svg">
  <defs
     id="defs" />
  <sodipodi:namedview
     id="base"
     pagecolor="#ffffff"
     bordercolor="#666666"
     borderopacity="1.0"
     inkscape:pageopacity="0.0"
     inkscape:pageshadow="2"
     inkscape:zoom="4"
     inkscape:cx="74.157044"
     inkscape:cy="-18.75"
     inkscape:document-units="px"
     inkscape:current-layer="layer1"
     showgrid="true"
     units="px"
     inkscape:window-width="1366"
     inkscape:window-height="705"
     inkscape:window-x="-8"
     inkscape:window-y="-8"
     inkscape:window-maximized="1"
     inkscape:snap-bbox="true">
    <inkscape:grid
       type="xygrid"
       id="grid6206" />
  </sodipodi:namedview>
  <metadata
     id="metadata">
    <rdf:RDF>
      <cc:Work
         rdf:about="">
        <dc:format>image/svg+xml</dc:format>
        <dc:type
           rdf:resource="http://purl.org/dc/dcmitype/StillImage" />
        <dc:title />
      </cc:Work>
    </rdf:RDF>
  </metadata>
  <g
     inkscape:label="Layer 1"
     inkscape:groupmode="layer"
     id="layer1">
    <path
       style="fill:#ff7700;fill-opacity:1;fill-rule:nonzero;stroke:#000000;stroke-width:2;stroke-miterlimit:4;stroke-dasharray:none;stroke-opacity:0"
       d="M 0,0 20,0 20,4 4,4 4,8 20,8 20,20 0,20 0,16 16,16 16,12 0,12 Z"
       id="s"
       inkscape:connector-curvature="0" />
    <path
       style="fill:#ff7700;fill-opacity:1;fill-rule:nonzero;stroke:#000000;stroke-width:2;stroke-miterlimit:4;stroke-dasharray:none;stroke-opacity:0"
       d="m 24,0 20,0 0,20 -4,0 0,-16 -12,0 0,16 -4,0 z"
       id="n"
       inkscape:connector-curvature="0" />
    <path
       style="fill:#ff7700;fill-opacity:1;fill-rule:nonzero;stroke:#000000;stroke-width:2;stroke-miterlimit:4;stroke-dasharray:none;stroke-opacity:0"
       d="m 72,0 4,0 0,8 12,0 0,-8 4,0 0,4 -8,0 0,12 8,0 0,4 -4,0 0,-8 -12,0 0,8 -4,0 z"
       id="k"
       inkscape:connector-curvature="0" />
    <path
       id="a"
       style="fill:#ff7700;fill-opacity:1;fill-rule:nonzero;stroke:#000000;stroke-width:2;stroke-miterlimit:4;stroke-dasharray:none;stroke-opacity:0"
       d="m 52,12 0,4 12,0 0,-4 z M 48,0 68,0 68,20 48,20 48,8 64,8 64,4 48,4 Z"
       inkscape:connector-curvature="0" />
    <path
       id="e"
       style="fill:#ff7700;fill-opacity:1;fill-rule:nonzero;stroke:#000000;stroke-width:2;stroke-miterlimit:4;stroke-dasharray:none;stroke-opacity:0"
       d="m 100,4 0,4 12,0 0,-4 z m -4,-4 20,0 0,12 -16,0 0,4 16,0 0,4 -20,0 z"
       inkscape:connector-curvature="0" />
    <path
       style="fill:#ff7700;fill-opacity:1;fill-rule:nonzero;stroke:#000000;stroke-width:2;stroke-miterlimit:4;stroke-dasharray:none;stroke-opacity:0"
       d="m 120,8 8,0 0,-8 4,0 0,8 8,0 0,4 -8,0 0,8 -4,0 0,-8 -8,0 z"
       id="+"
       inkscape:connector-curvature="0" />
  </g>
</svg>
