<?xml version="1.0" encoding="UTF-8" standalone="no"?>
<svg
   xmlns:dc="http://purl.org/dc/elements/1.1/"
   xmlns:cc="http://creativecommons.org/ns#"
   xmlns:rdf="http://www.w3.org/1999/02/22-rdf-syntax-ns#"
   xmlns:svg="http://www.w3.org/2000/svg"
   xmlns="http://www.w3.org/2000/svg"
   version="1.1"
   id="svg2"
   viewBox="0 0 140 24"
   height="24"
   width="140">
  <defs
     id="defs4" />
  <metadata
     id="metadata7">
    <rdf:RDF>
      <cc:Work
         rdf:about="">
        <dc:format>image/svg+xml</dc:format>
        <dc:type
           rdf:resource="http://purl.org/dc/dcmitype/StillImage" />
        <dc:title></dc:title>
      </cc:Work>
    </rdf:RDF>
  </metadata>
  <g
     id="layer1">
    <path
       id="rect4155"
       d="M 4,4 8,4 8,8 4,8 4,4 Z"
       style="fill:#ff7700;fill-opacity:1;fill-rule:evenodd;stroke:none;stroke-width:1;stroke-miterlimit:4;stroke-dasharray:none;stroke-opacity:1" />
    <path
       id="rect4155-8"
       d="m 16,4 4,0 0,4 -4,0 z"
       style="fill:#ff7700;fill-opacity:1;fill-rule:evenodd;stroke:none;stroke-width:1;stroke-miterlimit:4;stroke-dasharray:none;stroke-opacity:1" />
    <path
       id="rect4155-8-0"
       d="m 4,16 4,0 0,4 -4,0 z"
       style="fill:#ff7700;fill-opacity:1;fill-rule:evenodd;stroke:none;stroke-width:1;stroke-miterlimit:4;stroke-dasharray:none;stroke-opacity:1" />
    <path
       id="rect4155-8-0-2"
       d="m 16,16 4,0 0,4 -4,0 z"
       style="fill:#ff7700;fill-opacity:1;fill-rule:evenodd;stroke:none;stroke-width:1;stroke-miterlimit:4;stroke-dasharray:none;stroke-opacity:1" />
    <path
       id="path4203"
       d="m 28,8 0,-8 8,0 z"
       style="fill:#ff7700;fill-opacity:1;fill-rule:evenodd;stroke:none;stroke-width:1px;stroke-linecap:butt;stroke-linejoin:miter;stroke-opacity:1" />
    <path
       id="path4203-6"
       d="m 28,16 0,8 8,0 z"
       style="fill:#ff7700;fill-opacity:1;fill-rule:evenodd;stroke:none;stroke-width:1px;stroke-linecap:butt;stroke-linejoin:miter;stroke-opacity:1" />
    <path
       id="path4203-6-2"
       d="m 44,0 8,0 0,8 z"
       style="fill:#ff7700;fill-opacity:1;fill-rule:evenodd;stroke:none;stroke-width:1px;stroke-linecap:butt;stroke-linejoin:miter;stroke-opacity:1" />
    <path
       id="path4203-6-2-3"
       d="m 44,24 8,0 0,-8 z"
       style="fill:#ff7700;fill-opacity:1;fill-rule:evenodd;stroke:none;stroke-width:1px;stroke-linecap:butt;stroke-linejoin:miter;stroke-opacity:1" />
    <path
       id="rect4155-8-7"
       d="m 56,10 8,0 0,4 -8,0 z"
       style="fill:#ff7700;fill-opacity:1;fill-rule:evenodd;stroke:none;stroke-width:1;stroke-miterlimit:4;stroke-dasharray:none;stroke-opacity:1" />
    <path
       id="rect4155-8-7-6"
       d="m 72,10 8,0 0,4 -8,0 z"
       style="fill:#ff7700;fill-opacity:1;fill-rule:evenodd;stroke:none;stroke-width:1;stroke-miterlimit:4;stroke-dasharray:none;stroke-opacity:1" />
    <path
       id="rect4155-8-7-6-9"
       d="m 84,8 4,0 0,8 -4,0 z"
       style="fill:#ff7700;fill-opacity:1;fill-rule:evenodd;stroke:none;stroke-width:1;stroke-miterlimit:4;stroke-dasharray:none;stroke-opacity:1" />
    <path
       id="rect4155-8-7-6-9-4"
       d="m 104,8 4,0 0,8 -4,0 z"
       style="fill:#ff7700;fill-opacity:1;fill-rule:evenodd;stroke:none;stroke-width:1;stroke-miterlimit:4;stroke-dasharray:none;stroke-opacity:1" />
    <path
       id="rect4155-8-7-6-9-0"
       d="m 92,0 8,0 0,4 -8,0 z"
       style="fill:#ff7700;fill-opacity:1;fill-rule:evenodd;stroke:none;stroke-width:1;stroke-miterlimit:4;stroke-dasharray:none;stroke-opacity:1" />
    <path
       id="rect4155-8-7-6-9-0-3"
       d="m 92,20 8,0 0,4 -8,0 z"
       style="fill:#ff7700;fill-opacity:1;fill-rule:evenodd;stroke:none;stroke-width:1;stroke-miterlimit:4;stroke-dasharray:none;stroke-opacity:1" />
    <path
       id="rect4155-8-7-6-9-46"
       d="m 128,0 4,0 0,8 -4,0 z"
       style="fill:#ff7700;fill-opacity:1;fill-rule:evenodd;stroke:none;stroke-width:1;stroke-miterlimit:4;stroke-dasharray:none;stroke-opacity:1" />
    <path
       id="rect4155-8-7-6-9-9"
       d="m 116,16 4,0 0,8 -4,0 z"
       style="fill:#ff7700;fill-opacity:1;fill-rule:evenodd;stroke:none;stroke-width:1;stroke-miterlimit:4;stroke-dasharray:none;stroke-opacity:1" />
    <path
       id="rect4155-8-7-6-9-0-3-6"
       d="m 112,4 8,0 0,4 -8,0 z"
       style="fill:#ff7700;fill-opacity:1;fill-rule:evenodd;stroke:none;stroke-width:1;stroke-miterlimit:4;stroke-dasharray:none;stroke-opacity:1" />
    <path
       id="rect4155-8-7-6-9-0-3-6-2"
       d="m 128,16 8,0 0,4 -8,0 z"
       style="fill:#ff7700;fill-opacity:1;fill-rule:evenodd;stroke:none;stroke-width:1;stroke-miterlimit:4;stroke-dasharray:none;stroke-opacity:1" />
  </g>
</svg>
